<svg xmlns="http://www.w3.org/2000/svg" width="1615.397" height="389" viewBox="0 0 1615.397 389"><path fill="#736A65" d="M0 0h159v389H0z"/><path fill="#736A65" d="M0 235h391v154H0z"/><path fill="#DE312A" d="M190 0h201v201H190z"/><g fill="#736A65"><path d="M644.908 323l-20.65-51.8H508.055l-20.65 51.8h-33.25l93.802-233.454h36.05L678.158 323h-33.25zm-78.752-203.354l-49.7 125.652h99.05l-49.35-125.652zM708.6 323V89.546h29.052V297.1h108.502V323H708.6zM865.75 206.448c0-72.45 53.55-120.752 120.052-120.752 41.3 0 70 18.2 90.65 43.75l-23.1 14.35c-14.7-18.9-39.55-32.2-67.55-32.2-51.102 0-89.952 39.2-89.952 94.853 0 55.3 38.85 95.2 89.95 95.2 28.002 0 51.102-13.65 62.652-25.2v-47.6h-80.15v-25.9h109.2v84.35c-21.7 24.15-53.55 40.25-91.7 40.25-66.5 0-120.052-48.65-120.052-121.102zM1115.3 206.448c0-68.95 46.55-120.752 115.85-120.752 68.952 0 115.854 51.8 115.854 120.752S1300.102 327.2 1231.15 327.2c-69.3 0-115.85-51.8-115.85-120.752zm201.603 0c0-54.602-33.6-94.852-85.752-94.852-52.5 0-85.75 40.25-85.75 94.852 0 54.25 33.25 94.852 85.75 94.852 52.152 0 85.753-40.6 85.753-94.852zM1392.5 323V89.546h152.952v25.9H1421.55v75.25h121.452v25.9H1421.55V323h-29.05zM1584.996 323V89.546h29.05V323h-29.05z"/></g></svg>