<?xml version="1.0" encoding="utf-8"?>
<!-- Generator: Adobe Illustrator 16.0.0, SVG Export Plug-In . SVG Version: 6.00 Build 0)  -->
<!DOCTYPE svg PUBLIC "-//W3C//DTD SVG 1.1//EN" "http://www.w3.org/Graphics/SVG/1.1/DTD/svg11.dtd">
<svg version="1.1" id="Layer_1" xmlns="http://www.w3.org/2000/svg" xmlns:xlink="http://www.w3.org/1999/xlink" x="0px" y="0px"
	 width="1615.397px" height="389px" viewBox="0 0 1615.397 389" enable-background="new 0 0 1615.397 389" xml:space="preserve">
<rect fill="#736A65" width="159" height="389"/>
<rect y="235" fill="#736A65" width="391" height="154"/>
<rect x="190" fill="#DE312A" width="201" height="201"/>
<g enable-background="new    ">
	<path fill="#736A65" d="M644.908,323l-20.65-51.801H508.055L487.405,323h-33.25l93.802-233.454h36.051L678.158,323H644.908z
		 M566.156,119.646l-49.701,125.652h99.052L566.156,119.646z"/>
	<path fill="#736A65" d="M708.601,323V89.546h29.051V297.1h108.502V323H708.601z"/>
	<path fill="#736A65" d="M865.75,206.448c0-72.451,53.551-120.752,120.052-120.752c41.301,0,70.001,18.2,90.651,43.75
		l-23.101,14.351c-14.7-18.9-39.55-32.2-67.551-32.2c-51.101,0-89.951,39.2-89.951,94.852c0,55.301,38.851,95.201,89.951,95.201
		c28.001,0,51.101-13.65,62.651-25.2v-47.601h-80.151v-25.9h109.202V287.3c-21.701,24.15-53.552,40.25-91.702,40.25
		C919.301,327.55,865.75,278.899,865.75,206.448z"/>
	<path fill="#736A65" d="M1115.299,206.448c0-68.951,46.551-120.752,115.852-120.752c68.951,0,115.853,51.801,115.853,120.752
		S1300.102,327.2,1231.151,327.2C1161.85,327.2,1115.299,275.399,1115.299,206.448z M1316.903,206.448
		c0-54.602-33.601-94.852-85.752-94.852c-52.501,0-85.751,40.25-85.751,94.852c0,54.251,33.25,94.852,85.751,94.852
		C1283.302,301.3,1316.903,260.699,1316.903,206.448z"/>
	<path fill="#736A65" d="M1392.5,323V89.546h152.952v25.9h-123.902v75.251h121.452v25.9h-121.452V323H1392.5z"/>
	<path fill="#736A65" d="M1584.996,323V89.546h29.05V323H1584.996z"/>
</g>
</svg>
